<?xml version="1.0" encoding="iso-8859-1"?>
<!DOCTYPE svg PUBLIC "-//W3C//DTD SVG 1.0//EN"
   "http://www.w3.org/TR/2001/REC-SVG-20010904/DTD/svg10.dtd">
<!-- Generator: Adobe Illustrator 9.0, SVG Export Plug-In  -->
<svg xmlns="http://www.w3.org/2000/svg" xmlns:xlink="http://www.w3.org/1999/xlink"  viewBox="0 0 55.521 60.508" preserveAspectRatio="none">
    <defs>
	<g id="Broken_Border" style="stroke-width:0.2">
	    <path d="M21.927,58.088l4.999-6.834l-4.999-4.166l0.404-1.441l3.526-12.556l0.235-0.837l-2.489-3.268l-0.177-0.232l1.222-7.64c-0.656-0.432-1.607-0.455-2.575,0.15c-0.065,0.047-0.132,0.104-0.197,0.161c-0.379-0.118-0.806-0.078-1.253,0.162c0.737-0.991,1.604-2.324,2.37-3.884l-2.566-3.949l0.096-0.35l1.404-5.15l-1.151-6.167H1.927v56.333h19.798l0.202-0.333z"/>
	    <path d="M53.593,2.087h-24.11l-0.39,8.833l1.749,4.664l0.251,0.669l-0.124,0.965c0.061,0.173,0.13,0.331,0.21,0.468c-0.104,0.174-0.226,0.33-0.334,0.5l-0.585,4.567l0.072,1.644l0.261,5.856l-0.384,3.934l-0.283,2.9l2.875,6.468l0.459,1.032l-3.334,5.833l4,7.833l0.08,0.167h19.587V2.087z"/>
        </g>
    </defs>

    <g style="fill-rule:nonzero; clip-rule:nonzero; stroke-miterlimit:4;">
	<g id="Broken_Squiggle" style="stroke:none;">
	    <path id="Border" style="stroke:black;fill:none;stroke-width:0.3" 
                  d="M55.371,60.358H0.15V0.15h55.221v60.208z"/>
            <use xlink:href="#Broken_Border" fill="white" fill-opacity="0.5"/>
	    <path id="Broken_Green_1" style="fill:#33CC33" 
                  d="M32.886,43.506c0.656-0.116,1.3-0.415,1.752-0.932c0.412-0.412,0.799-0.814,1.167-1.217c0.011,0.006,0.021,0.012,0.032,0.016c0.029-0.047,0.057-0.096,0.086-0.143c1.289-1.43,2.303-2.883,3.035-4.896c0.516-1.721-0.82-2.205-2.148-2.076c-0.212-1.113-1.281-1.869-2.893-1.283c-0.111,0.031-0.225,0.09-0.339,0.164c-0.809-0.396-2.029-0.135-2.78,0.314c-0.219,0.147-0.378,0.394-0.504,0.685l-0.282,2.9l2.874,6.468z"/>
	    <path id="Broken_Green_2" style="fill:#33CC33" 
                  d="M21.198,37.293c-0.479,0.961-0.72,2.881,0.961,2.881c0.004,0.002,0.008,0,0.013,0.002c-0.304,0.807-0.617,1.613-0.974,2.398c-1.019,1.891-0.093,2.895,1.219,3.022l3.527-12.556c-1.904,1.104-3.428,2.277-4.746,4.252z"/>
	    <path id="Broken_Blue" style="fill:#6666FF" 
                  d="M24.734,21.065c-0.656-0.432-1.607-0.455-2.575,0.15c-0.065,0.047-0.132,0.104-0.197,0.161c-0.379-0.118-0.806-0.078-1.253,0.162c0.737-0.991,1.604-2.324,2.37-3.884l-2.566-3.949l0.096-0.35c-3.104,1.641-5.654,3.857-7.81,6.66c-0.72,0.96-1.92,2.88-0.96,4.319c0.619,1.034,2.126,0.464,2.993-0.327c-0.946,1.314-2.54,3.808-3.713,6.808c-0.96,2.4,0.479,4.799,2.88,3.119c1.376-0.951,2.7-1.955,3.942-3.023c0.134,0.188,0.406,0.115,0.857-0.336c0.221-0.221,0.44-0.445,0.661-0.668c0.672,0.652,1.843,0.77,2.938-0.053c0.061-0.09,0.136-0.168,0.203-0.252c0.35-0.127,0.725-0.373,1.088-0.665l-0.177-0.232l1.222-7.64z"/>
	    <path id="Broken_Red" style="fill:#FF0000" 
                  d="M31.054,17.17c0.061,0.173,0.13,0.331,0.21,0.468c-0.104,0.174-0.226,0.33-0.334,0.5l-0.585,4.567l0.073,1.644c0.423,0.282,0.97,0.352,1.579-0.015c0.227-0.129,0.439-0.273,0.658-0.412c0.451,0.664,1.158,1.001,1.982,0.412c0.153-0.092,0.306-0.176,0.459-0.266c-0.298,1.618-0.162,3.473,1.434,3.401c0.37,0.98,1.139,1.785,2.188,1.186c1.439-0.959,2.879-1.92,4.32-2.879c1.439-0.721,2.158-2.641,1.92-4.321c0-1.08-0.977-2.341-2.223-2.058c0.021-0.034,0.041-0.068,0.063-0.103c0.719-1.199,1.199-2.64,0.719-4.079c-0.24-0.96-1.439-1.921-2.398-1.2c-1.075,0.645-2.147,1.24-3.201,1.832c-0.16-0.339-0.371-0.642-0.618-0.871c0.073-0.16,0.144-0.32,0.218-0.481c0.48-1.2,0.721-6-1.92-4.56c-1.199,0.72-2.16,1.439-3.119,2.399c-0.829,0.829-1.417,2.001-1.551,3.201l0.251,0.669l-0.124,0.965z"/>
            <use xlink:href="#Broken_Border" fill="none" stroke="black"/>
	</g>
	<g id="More_About">
	    <circle style="fill:#FFFF66;fill-opacity:0.7;stroke:black;stroke-width:0.6;" 
                  cx="48.4" cy="53.25" r="3.5"/>
	    <path style="fill:black;stroke:none;" d="M48.942,54.758c0,0.126,0,0.461,0.074,0.558c0.082,0.112,0.275,0.134,0.394,0.134v0.238c-0.297-0.007-0.602-0.022-0.914-0.029c-0.335,0.007-0.662,0.022-0.997,0.029v-0.238c0.119,0,0.313-0.022,0.395-0.134c0.074-0.097,0.074-0.431,0.074-0.558v-1.286c0-0.446-0.082-0.61-0.476-0.602v-0.246c0.483-0.037,0.959-0.104,1.45-0.223v2.356z M47.805,51.212c0-0.313,0.253-0.565,0.565-0.565c0.32,0,0.55,0.253,0.55,0.565c0,0.319-0.26,0.55-0.572,0.55c-0.283,0-0.543-0.268-0.543-0.55z"/>
	</g>
    </g>
</svg>
